<?xml version="1.0" encoding="utf-8"?>
<svg xmlns="http://www.w3.org/2000/svg" xmlns:xlink="http://www.w3.org/1999/xlink" version= "1.1" width="639px" height="455px" viewBox="192 966 639 455">
<g id="layer1">
<g style="fill:rgb(0,174,199); fill-opacity:1.0; stroke-linejoin: miter">
<path d="M191.999,965.6975C191.91902,965.6975,191.84233,965.7293,191.78578,965.7858C191.72923,965.84235,191.69748,965.91907,191.69748,965.999L191.69849,1421.0C191.69849,1421.1665,191.83348,1421.3015,192.0,1421.3015L831.001,1421.3025C831.08093,1421.3025,831.15765,1421.2708,831.2142,1421.2142C831.2707,1421.1577,831.3025,1421.0809,831.3025,1421.001L831.3015,966.0C831.3015,965.8335,831.1665,965.6985,831.0,965.6985L191.999,965.6975 Z"/>
</g>
<g style="fill:rgb(247,145,124); fill-opacity:1.0; stroke-linejoin: miter">
<path d="M684.1837,1238.4966L683.2047,1239.5804Q676.2446,1242.8561,642.47473,1244.8202Q608.4712,1246.7826,562.3916,1246.4116Q518.4147,1245.8931,492.04816,1243.3778Q483.59998,1242.5648,478.13074,1241.606L473.534,1240.6201Q469.74585,1239.6027,469.70325,1238.4966Q470.85327,1235.1023,501.1132,1232.8484Q531.37305,1230.5941,576.9435,1230.5085Q622.5138,1230.5942,652.7737,1232.8481Q683.0337,1235.1023,684.1837,1238.4966"/>
</g>
<g style="fill:rgb(0,0,0); fill-opacity:0.26666668; stroke-linejoin: miter">
<path d="M535.3153,1356.5913Q433.58963,1356.7229,366.04083,1360.186Q298.4921,1363.6489,295.92502,1368.864Q296.0201,1370.5634,304.47632,1372.1266L314.73755,1373.6411Q326.94638,1375.1143,345.805,1376.3635Q404.6626,1380.2279,502.8315,1381.0245Q519.1841,1381.1151,534.8551,1381.1149Q617.7611,1381.115,681.5996,1378.5793Q756.9834,1375.5618,772.52014,1370.529L774.70544,1368.8638Q772.1384,1363.6487,704.5897,1360.1858Q637.04114,1356.7228,535.3153,1356.5913 Z"/>
</g>
<g>
<g>
<g style="fill:rgb(220,229,235); fill-opacity:1.0; stroke-linejoin: miter">
<path d="M665.8817,1191.1577C661.85315,1173.7883,650.1145,1161.0608,631.90015,1154.316C619.76636,1149.8345,590.2152,1145.7343,577.2058,1161.0265C535.26404,1136.1732,513.1482,1149.7117,498.27582,1165.6858C465.4501,1200.9467,480.46887,1236.468,494.5042,1251.8899C504.65073,1263.0583,507.58536,1269.5161,509.2288,1276.8922C509.5989,1278.515,510.43582,1283.3086,510.4772,1284.3347C513.0708,1345.7571,534.01404,1351.0199,539.0216,1351.3904C540.48145,1351.8112,541.91907,1352.0033,543.3097,1352.0033C545.86194,1352.0033,548.28,1351.3225,550.4745,1349.9773C560.87634,1343.6027,564.0818,1323.7571,566.8992,1306.2815C567.9237,1299.9576,568.8795,1293.988,569.9968,1290.5146C571.93445,1284.5017,573.5364,1283.1302,573.52124,1282.9219C574.9175,1283.5431,577.2721,1288.0426,577.5316,1289.816C577.91833,1292.4647,578.19604,1295.895,578.5066,1299.7396C580.1128,1319.4677,582.5089,1349.2192,603.49084,1351.3734C604.9796,1351.6927,608.5205,1352.0212,612.8679,1349.3973C622.75757,1343.3925,630.0812,1326.1947,634.6135,1298.2759L635.29456,1293.8109C636.927,1282.6191,639.1876,1267.2802,648.431,1257.5591C659.1117,1246.4073,672.0023,1217.567,665.8817,1191.1577 Z M642.23425,1251.6371C631.10034,1263.344,628.5095,1280.9357,626.8124,1292.5902L626.15625,1296.9127C620.9332,1329.0286,613.1637,1338.7233,609.0094,1341.6511C606.8137,1343.1979,605.4436,1342.9799,605.5941,1343.0391L604.61914,1342.8441C590.55896,1341.6166,588.4901,1316.0273,587.1284,1299.0658C586.7914,1294.996,586.4973,1291.3722,586.094,1288.5713C585.681,1285.7444,581.67896,1274.9641,574.3208,1274.3508C566.40894,1273.8206,562.9729,1284.3665,561.84595,1287.8811C560.52576,1291.9939,559.5548,1297.9719,558.43604,1304.9186C556.2831,1318.2219,553.0377,1338.3367,545.99854,1342.6593C545.05115,1343.2489,543.6316,1343.8525,541.0752,1343.0295L539.77563,1342.8278L539.6625,1342.8291C539.44836,1342.8278,521.5033,1340.6584,519.10596,1283.9797C519.0216,1282.0033,517.98035,1276.4281,517.66833,1275.0155C515.40625,1264.909,510.86935,1257.0702,500.9122,1246.1215C497.5784,1242.4711,469.45786,1209.3433,504.61758,1171.5842C520.7715,1154.2333,544.6067,1142.4847,598.73315,1186.9359C600.57556,1188.4369,603.27405,1188.1841,604.79724,1186.342C606.31104,1184.5011,606.0416,1181.8052,604.20764,1180.279C597.27075,1174.599,590.76196,1169.7681,584.6564,1165.7261C594.6304,1155.7107,618.1686,1158.4354,628.9392,1162.4294C644.5392,1168.1978,654.15125,1178.5197,657.52234,1193.1284C662.661,1215.4045,651.9553,1241.4368,642.23425,1251.6371 Z"/>
</g>
</g>
<g style="fill:rgb(255,255,255); fill-opacity:1.0; stroke-linejoin: miter">
<path d="M605.6161,1343.1646C605.6018,1343.1666,605.59827,1343.1686,605.6013,1343.1686C605.6039,1343.1686,605.6105,1343.1675,605.6196,1343.1646 Z"/>
</g>
<g style="fill:rgb(247,145,124); fill-opacity:1.0; stroke-linejoin: miter">
<path d="M484.65106,1237.0719L470.82385,1237.0724Q470.8238,1302.529,470.82385,1367.9855Q577.1378,1367.9851,683.4518,1367.9851Q683.45166,1302.5284,683.452,1237.0721L660.91394,1237.0721C657.2949,1245.8615,652.6875,1253.1147,648.431,1257.5591C639.1876,1267.2802,636.927,1282.6191,635.29456,1293.8109L634.6135,1298.2759C630.0812,1326.1947,622.75757,1343.3925,612.8679,1349.3973C609.9614,1351.1515,607.4155,1351.5862,605.60205,1351.5862C604.7031,1351.5862,603.9844,1351.4794,603.49084,1351.3734C582.5089,1349.2192,580.1128,1319.4677,578.5066,1299.7396C578.19604,1295.895,577.91833,1292.4647,577.5316,1289.816C577.2726,1288.045,574.9241,1283.5559,573.5271,1282.9246L573.5242,1282.9248C573.5231,1283.1417,571.9264,1284.5266,569.9968,1290.5146C568.8795,1293.988,567.9237,1299.9576,566.8992,1306.2815C564.0818,1323.7571,560.87634,1343.6027,550.4745,1349.9773C548.28,1351.3225,545.86194,1352.0033,543.3097,1352.0033C541.91907,1352.0033,540.48145,1351.8112,539.0216,1351.3904C534.01404,1351.0199,513.0708,1345.7571,510.4772,1284.3347C510.43582,1283.3086,509.5989,1278.515,509.2288,1276.8922C507.58536,1269.5161,504.65073,1263.0583,494.5042,1251.8899C491.034,1248.0769,487.50354,1243.0349,484.65106,1237.0719 Z"/>
</g>
</g>
<g style="fill:rgb(247,145,124); fill-opacity:1.0; stroke-linejoin: miter">
<path d="M577.62683,1359.9502Q540.50146,1359.9503,511.91464,1361.6813Q478.159,1363.7413,471.20203,1367.1771Q466.22467,1370.7771,492.5588,1373.4337Q518.9142,1376.0721,562.8723,1376.6157Q570.1931,1376.6776,577.2091,1376.6776Q614.3345,1376.6776,642.9214,1374.9465Q676.6769,1372.8865,683.6339,1369.4508L684.61255,1368.314Q684.56995,1367.1538,680.7833,1366.0865L676.1886,1365.0527Q670.7218,1364.0471,662.2772,1363.1942Q635.92175,1360.5557,591.96375,1360.012Q584.6428,1359.9502,577.62683,1359.9502 Z"/>
</g>
<g style="fill:rgb(255,255,255); fill-opacity:1.0; stroke-linejoin: miter">
<path d="M605.6522,1343.3533C605.6249,1343.3612,605.6039,1343.3641,605.59534,1343.3641C605.5841,1343.3641,605.5946,1343.3591,605.6406,1343.354L605.6417,1343.3538C605.6433,1343.3538,605.64465,1343.3535,605.6459,1343.3533 Z M536.1428,1155.7347C521.97266,1155.7347,512.2444,1162.9086,504.3763,1171.3599C469.01883,1209.3312,497.32175,1242.679,500.66885,1246.3439L500.6689,1246.3439C510.6025,1257.267,515.1012,1265.0555,517.34656,1275.0875C517.6593,1276.5033,518.6937,1282.0503,518.7766,1283.9939L518.7766,1283.9937C521.15515,1340.228,538.84973,1343.0941,539.6267,1343.1571L539.62695,1343.1571C539.63794,1343.1581,539.6461,1343.1587,539.6625,1343.1587L539.6664,1343.1587L539.7522,1343.1576L541.01086,1343.3533L541.005,1343.3533C541.91504,1343.6433,542.69604,1343.7607,543.37256,1343.7607C544.6494,1343.7607,545.5227,1343.3434,546.171,1342.9401L546.17114,1342.9401C553.3651,1338.5225,556.61646,1318.2256,558.7512,1305.0342L558.7512,1305.0342C558.75586,1305.0056,558.75696,1304.9991,558.76135,1304.9712C559.88184,1298.0135,560.8491,1292.0652,562.1598,1287.9818L562.1598,1287.9818C563.2909,1284.454,566.532,1274.6613,573.749,1274.6613C573.9293,1274.6613,574.1128,1274.6674,574.2988,1274.6799L574.2997,1274.6799C581.38354,1275.2764,585.35376,1285.7831,585.76794,1288.6191L585.76794,1288.6191C586.15625,1291.3167,586.4436,1294.7874,586.76746,1298.7007L586.7999,1299.093L586.7999,1299.0922L586.8032,1299.1344L586.8032,1299.1342C588.14856,1315.8903,590.188,1341.908,604.5845,1343.1721L604.578,1343.1721L605.4794,1343.3524L605.4728,1343.3524C605.49524,1343.3636,605.5128,1343.37,605.52136,1343.3722L605.5271,1343.3722C605.5271,1343.3706,605.5199,1343.3661,605.5032,1343.3583L605.50977,1343.3583L605.52954,1343.3623C605.5513,1343.3668,605.573,1343.3687,605.5945,1343.3687C605.6327,1343.3687,605.67004,1343.362,605.70496,1343.3495L605.6985,1343.3495C606.0758,1343.3234,607.371,1343.2083,609.1992,1341.9207L609.1992,1341.9207C613.4685,1338.9116,621.25574,1329.0988,626.48157,1296.9655L626.48206,1296.962L627.1383,1292.6399L627.13855,1292.6378C628.8385,1280.964,631.42285,1263.4836,642.4728,1251.8645C652.2593,1241.5956,663.0105,1215.4534,657.8435,1193.0544C654.44434,1178.3242,644.74426,1167.9224,629.05383,1162.1205C623.7412,1160.1504,615.36426,1158.4926,607.02246,1158.4927C598.34534,1158.4926,589.60864,1160.2861,584.42285,1165.4933C584.35315,1165.5635,584.3185,1165.6609,584.3285,1165.7594C584.3385,1165.8577,584.39197,1165.9462,584.4745,1166.001C590.5697,1170.0363,597.0685,1174.8595,603.9988,1180.5342L603.9988,1180.5342C605.69336,1181.9458,605.93933,1184.4342,604.5427,1186.1327L604.54285,1186.1327C603.75,1187.0911,602.6144,1187.5831,601.46875,1187.5831C600.5803,1187.5831,599.6865,1187.2872,598.9424,1186.6812L598.9424,1186.6812C571.0613,1163.7842,551.151,1155.7347,536.1428,1155.7347 Z"/>
</g>
<g style="fill:rgb(0,0,0); fill-opacity:1.0; stroke-linejoin: miter">
<path d="M415.61835,1359.6445L432.99704,1355.4563Q437.55344,1360.3934,441.14597,1362.7169Q443.03775,1363.986,445.76596,1365.316Q447.10507,1366.015,453.92212,1368.9712Q455.06073,1369.4895,455.7379,1369.865Q457.6941,1370.9222,457.32397,1371.667Q456.7019,1372.7925,451.7287,1373.9175Q447.37363,1374.8077,443.5792,1374.5712Q438.42496,1374.2194,433.44077,1372.1986Q429.4471,1370.5973,428.23758,1368.1699L426.16605,1370.3115Q420.16376,1369.9784,417.7533,1369.2441Q414.56476,1368.363,414.17303,1366.2408Q413.6657,1363.9103,415.61646,1359.6488 Z"/>
</g>
<g style="fill:rgb(0,0,0); fill-opacity:1.0; stroke-linejoin: miter">
<path d="M382.85214,1353.1852Q386.6364,1353.4811,389.13898,1357.4127Q392.70453,1363.0725,394.18073,1370.0942Q394.958,1374.398,393.27008,1376.3448Q391.34076,1378.4534,387.2567,1378.0436Q382.62534,1377.4469,378.97086,1374.6606Q375.83676,1372.2256,375.25314,1368.5114Q374.74448,1365.6292,375.36612,1361.6321L380.0591,1353.1338Q381.8563,1353.071,382.83255,1353.1831 Z"/>
</g>
<g style="fill:rgb(16,9,0); fill-opacity:1.0; stroke-linejoin: miter">
<path d="M406.0332,1106.6991Q409.09482,1106.9259,412.56448,1108.9694Q416.00455,1110.931,417.11362,1113.2588Q418.07675,1115.1149,418.24374,1119.2821Q418.47806,1127.5049,417.97012,1130.9204L397.44672,1133.9384Q393.32404,1132.6962,393.02756,1130.9148Q392.90488,1130.4972,392.8334,1129.8439L392.57553,1126.7478Q391.8469,1121.2618,391.83664,1120.1089Q391.68442,1117.331,392.23654,1115.6067Q393.1207,1112.2969,398.30408,1109.0209Q402.41486,1106.3184,406.03046,1106.6991 Z"/>
</g>
<g style="fill:rgb(255,193,161); fill-opacity:1.0; stroke-linejoin: miter">
<path d="M401.6773,1113.4827L406.83514,1114.4637Q407.68054,1114.6022,410.7549,1114.46L411.69028,1114.5455Q412.8569,1114.7397,414.05148,1115.6946Q415.87833,1117.1509,416.41562,1120.0121Q416.87808,1122.0162,416.45078,1128.9259Q416.45456,1129.0619,416.58792,1128.763Q417.21774,1126.85,417.4343,1126.4626Q417.6749,1125.9357,417.97995,1125.7761Q418.7841,1125.5092,419.33517,1127.7113Q419.694,1129.6812,419.09982,1131.4714Q418.88254,1132.0706,418.58084,1132.4188Q418.46475,1132.6155,417.5023,1133.3531Q417.30032,1133.566,417.22824,1133.75Q417.18253,1133.5546,416.67252,1136.152L416.2369,1137.5546Q415.99002,1138.241,415.7383,1138.7515Q415.62747,1139.032,414.9872,1139.9498L414.80624,1140.441Q414.51193,1141.2343,415.47678,1146.2513L413.70035,1154.5208Q411.40195,1154.6952,410.2347,1154.5562Q407.62555,1154.355,405.05273,1152.2794Q401.91632,1149.7616,398.1787,1145.0851Q396.6537,1143.0892,396.414,1142.1544Q396.18774,1141.614,396.46826,1140.2705Q396.54626,1140.2028,395.78613,1138.7324Q395.67194,1138.4629,395.61456,1138.1722Q395.51184,1137.8793,395.66705,1136.302Q395.65826,1135.9567,395.57263,1135.7998Q395.4926,1135.5863,395.1161,1135.4088L393.45197,1134.8499Q393.16034,1134.709,392.8687,1134.3228Q392.5838,1133.9116,392.35748,1133.2709Q391.1351,1129.9209,391.1403,1129.6077Q390.8765,1128.434,391.26236,1127.7456Q391.79288,1126.8516,392.57285,1127.0168Q392.96268,1127.1302,393.36343,1127.7654Q393.5571,1127.9747,394.64505,1130.5079Q394.86783,1130.9219,394.90482,1130.7404Q394.96872,1130.5074,394.88846,1129.6538Q394.04068,1123.0364,394.11905,1121.938Q394.08072,1119.5043,394.73892,1117.8326Q396.92303,1113.144,401.64203,1113.4792 Z"/>
</g>
<g style="fill:rgb(167,197,248); fill-opacity:1.0; stroke-linejoin: miter">
<path d="M396.3363,1141.8384L408.89804,1152.2732L415.30728,1146.2833Q414.87558,1144.1782,415.14914,1144.2911Q415.3298,1144.0511,417.80917,1148.7854L427.9975,1190.4469L432.4718,1233.3461Q413.857,1251.504,406.5189,1232.5059Q402.35257,1222.1322,399.46152,1196.2719Q397.8111,1182.0891,395.5044,1150.4576L395.2389,1144.5664L396.31232,1141.8975 Z"/>
</g>
<g style="fill:rgb(0,0,0); fill-opacity:1.0; stroke-linejoin: miter">
<path d="M404.41162,1286.3771Q393.59866,1317.4065,392.18393,1325.5714Q391.25204,1330.229,391.21347,1333.5555Q391.0486,1334.6876,391.84622,1342.3304Q391.92953,1343.6888,391.85056,1344.8308Q391.78604,1345.8391,391.5139,1347.0778Q389.9867,1352.6335,390.0343,1353.1145Q389.74994,1354.8374,389.93628,1358.1547Q382.10648,1356.2959,381.3378,1356.9286Q381.1464,1356.7311,379.0422,1358.6278Q379.025,1358.4946,376.12247,1361.8855Q375.48148,1362.5363,375.17026,1362.54Q374.8892,1362.5972,374.67703,1361.9491Q374.20212,1359.1395,372.91788,1355.6381L374.6226,1352.5663Q373.62466,1352.1393,373.5262,1350.5084Q373.48965,1350.0758,373.512,1349.1836Q373.82474,1343.8857,373.7432,1343.2688L373.16666,1335.4741Q373.03574,1333.1039,373.06906,1331.5005Q373.08914,1330.4253,373.1782,1329.5308Q373.82303,1324.8516,373.79846,1323.7686Q373.88776,1322.992,373.66656,1315.7815Q373.65717,1314.5005,373.73547,1313.569L374.17303,1309.9275Q374.47214,1302.8464,374.81845,1300.9037Q375.07724,1298.9888,375.40994,1297.4481Q375.52896,1296.8906,375.68903,1296.337L376.2249,1294.7197Q376.3631,1294.136,376.39734,1293.6764Q376.55176,1292.1656,376.4933,1287.0887L404.3606,1286.3779 Z"/>
</g>
<g style="fill:rgb(0,0,0); fill-opacity:1.0; stroke-linejoin: miter">
<path d="M430.29407,1230.8937Q431.0351,1235.8462,431.8507,1240.4543L432.53894,1246.6766L434.23514,1255.0615L435.42453,1264.3754L436.4589,1269.8442Q436.62375,1270.9113,436.7039,1272.6215Q437.06082,1274.9353,435.5524,1299.3906L434.4457,1337.4559Q434.29636,1344.0594,434.41446,1346.6715Q434.50412,1349.1235,434.97977,1349.3037Q435.05405,1349.5841,435.03098,1350.4606Q434.9587,1351.6466,434.7651,1352.1661Q434.55368,1352.7766,433.98862,1353.1116Q433.88626,1353.1704,433.91403,1353.4307Q433.97702,1353.8939,435.51517,1356.0459Q429.0743,1359.9769,427.6506,1360.272Q424.75162,1361.1284,417.00024,1361.0854Q414.96777,1361.016,415.02454,1359.6184L414.8228,1356.5046Q413.89972,1351.3765,413.7434,1349.2878Q413.4607,1346.2954,413.43787,1342.9033Q413.3963,1338.8063,413.6468,1332.5084Q413.93152,1325.3423,414.6266,1316.5842Q414.7152,1314.976,414.64288,1312.9751L412.5061,1286.8201Q412.00775,1280.3475,411.6662,1274.1396Q410.89975,1260.7715,410.2225,1232.6776L418.7638,1233.7683L430.24756,1230.9054 Z"/>
</g>
<g style="fill:rgb(0,0,0); fill-opacity:1.0; stroke-linejoin: miter">
<path d="M408.2768,1152.8029L410.66928,1153.2255L414.53268,1156.9835L412.8331,1159.1127Q415.26706,1161.9235,417.7186,1173.8927Q419.09653,1180.4337,421.29684,1193.1064Q426.04926,1221.0051,426.28058,1223.168L420.02777,1229.7551L413.1177,1223.9088L408.512,1160.7937L404.72797,1156.9395L408.26923,1152.8114 Z"/>
</g>
<g style="fill:rgb(255,255,255); fill-opacity:1.0; stroke-linejoin: miter">
<path d="M395.36823,1143.1117Q405.7729,1157.3867,408.35294,1164.8682Q409.9861,1169.1138,411.35806,1175.1095L415.57364,1195.8707L426.35022,1194.4453L429.28156,1210.3622L415.09543,1212.4592L412.3568,1287.2644L374.24292,1287.2874Q374.92603,1279.4031,375.07343,1276.0065Q375.3877,1258.3195,375.89636,1254.3456Q375.97565,1251.687,379.45306,1224.6687Q380.08307,1219.1919,380.79712,1210.8528Q369.43924,1187.405,371.96707,1167.545Q373.0627,1159.9479,376.9739,1155.9739Q380.84006,1151.5698,392.57886,1148.265L395.3059,1143.2299 Z"/>
</g>
<g style="fill:rgb(255,255,255); fill-opacity:1.0; stroke-linejoin: miter">
<path d="M416.85202,1146.9764Q420.82797,1150.7113,423.53983,1152.0074Q424.64243,1152.8337,431.2067,1154.2228Q432.6186,1154.6964,433.8081,1155.4436Q436.498,1157.12,438.67242,1160.5916Q442.08856,1166.0359,445.3249,1177.7278Q448.57645,1189.9136,448.94302,1198.2239Q449.15054,1205.5074,445.9434,1206.9762Q444.67477,1207.6251,442.6284,1207.6664L430.4701,1207.5297Q437.45312,1241.3579,439.7026,1254.1002Q442.3492,1268.6182,445.06882,1288.3188L435.51938,1285.7523L417.90762,1173.2715L416.85825,1147.1619 Z"/>
</g>
<g style="fill:rgb(0,0,0); fill-opacity:1.0; stroke-linejoin: miter">
<path d="M417.64102,1171.6726L452.35422,1180.3917Q452.7313,1180.4515,452.56644,1180.5164L433.63287,1212.7595L426.13397,1209.929L429.12823,1207.6322L430.27405,1207.092L425.4038,1194.2811L405.02274,1197.7329L417.6284,1171.6985 Z"/>
</g>
<g style="fill:rgb(255,193,161); fill-opacity:1.0; stroke-linejoin: miter">
<path d="M440.69275,1184.4327Q441.6573,1184.5398,442.24695,1185.3768Q442.85956,1186.3347,442.59927,1187.1978Q442.48782,1187.5354,442.10364,1187.8933Q439.6659,1189.6313,438.6095,1190.9044Q437.33032,1192.3945,437.72296,1192.7722Q437.9875,1193.0092,439.19977,1192.6874L440.5484,1192.2745Q444.7515,1190.7716,445.126,1190.7001Q446.6171,1190.2543,447.55423,1190.2023Q449.83243,1190.1447,449.03836,1192.1412Q448.73508,1192.8192,448.04855,1193.6469Q447.90805,1193.8711,445.3655,1196.6364L444.5737,1197.6208Q444.21603,1198.1313,444.0621,1198.5809Q443.9675,1198.763,443.7985,1199.8716Q443.72342,1200.1512,443.61252,1200.3428Q443.22043,1201.0177,442.37918,1201.5894Q440.10107,1203.4104,432.2812,1203.6011L428.6844,1193.2991Q430.0581,1191.652,430.69012,1191.1359Q430.93048,1190.9287,431.21143,1190.7769L432.2196,1190.3104Q432.4926,1190.1431,432.72015,1189.9288L435.0371,1187.3499Q435.78003,1186.5906,436.5183,1186.0479Q438.93573,1184.3206,440.6798,1184.4312 Z"/>
</g>
<g style="fill:rgb(167,197,248); fill-opacity:1.0; stroke-linejoin: miter">
<path d="M428.84784,1192.7872L433.28235,1205.6708L429.2506,1207.6089L429.23456,1207.6158L425.32697,1194.429L428.83875,1192.7917 Z"/>
</g>
<g style="fill:rgb(255,0,0); fill-opacity:0.09803922; stroke-linejoin: miter">
<path d="M414.8926,1140.367L407.74634,1149.9564L397.8319,1141.357Q401.33008,1144.2788,403.15643,1145.2223Q405.28333,1146.3582,406.98877,1146.255Q410.45724,1146.0612,414.87918,1140.384 Z"/>
</g>
<g style="fill:rgb(0,0,0); fill-opacity:0.09411765; stroke-linejoin: miter">
<path d="M384.2643,1177.1047L393.8454,1195.182L401.32364,1198.8159L391.81635,1197.831L384.26553,1177.1117 Z"/>
</g>
<g style="fill:rgb(0,0,0); fill-opacity:0.078431375; stroke-linejoin: miter">
<path d="M414.51334,1213.5122L382.93402,1219.2098Q381.50977,1216.735,380.44604,1214.851L380.44464,1214.8512Q380.61823,1212.9417,380.79712,1210.8528Q380.72797,1210.71,380.65924,1210.5675L380.66064,1210.5677Q382.12048,1212.155,384.61475,1214.9447L414.51334,1213.5122 Z"/>
</g>
</g>
</svg>